<svg xmlns="http://www.w3.org/2000/svg" width="1920" height="980" viewBox="0 0 1920 980">
  <defs>
    <radialGradient id="a" cx="28%" cy="18%" r="70%">
      <stop offset="0" stop-color="#56e0c4" stop-opacity=".22"/>
      <stop offset=".55" stop-color="#56e0c4" stop-opacity="0"/>
    </radialGradient>
    <radialGradient id="b" cx="78%" cy="22%" r="78%">
      <stop offset="0" stop-color="#4ea7ff" stop-opacity=".20"/>
      <stop offset=".60" stop-color="#4ea7ff" stop-opacity="0"/>
    </radialGradient>
    <radialGradient id="c" cx="62%" cy="84%" r="84%">
      <stop offset="0" stop-color="#ffd166" stop-opacity=".14"/>
      <stop offset=".62" stop-color="#ffd166" stop-opacity="0"/>
    </radialGradient>
    <linearGradient id="d" x1="0" y1="0" x2="1" y2="0">
      <stop offset="0" stop-color="#070c18" stop-opacity=".92"/>
      <stop offset=".55" stop-color="#070c18" stop-opacity=".42"/>
      <stop offset="1" stop-color="#070c18" stop-opacity=".78"/>
    </linearGradient>
    <linearGradient id="gold" x1="0" y1="0" x2="1" y2="1">
      <stop offset="0" stop-color="#ffd166" stop-opacity=".22"/>
      <stop offset="1" stop-color="#a78bfa" stop-opacity=".16"/>
    </linearGradient>
    <filter id="blur" x="-20%" y="-20%" width="140%" height="140%">
      <feGaussianBlur stdDeviation="10"/>
    </filter>
  </defs>

  <rect width="1920" height="980" fill="#070c18"/>
  <rect width="1920" height="980" fill="url(#a)"/>
  <rect width="1920" height="980" fill="url(#b)"/>
  <rect width="1920" height="980" fill="url(#c)"/>

  <g opacity=".14" filter="url(#blur)">
    <path d="M980 840 L1220 520 L1460 840 Z" fill="#ffffff"/>
    <path d="M1190 840 L1320 610 L1450 840 Z" fill="#ffffff"/>
  </g>

  <g opacity=".22">
    <path d="M1380 210 C1520 180 1660 230 1730 320 C1790 395 1800 500 1750 585 C1700 670 1590 720 1475 705 C1370 690 1285 630 1255 540 C1215 420 1250 260 1380 210 Z" fill="url(#gold)"/>
    <path d="M1470 250 C1560 240 1650 285 1700 350 C1740 404 1750 480 1720 540 C1680 625 1580 665 1488 650 C1398 635 1336 572 1320 500 C1300 385 1352 270 1470 250 Z" fill="rgba(255,255,255,.18)"/>
    <path d="M1490 290 C1548 284 1604 314 1638 354 C1668 390 1676 440 1658 482 C1630 546 1566 572 1508 560 C1452 548 1418 510 1410 460 C1398 382 1424 304 1490 290 Z" fill="rgba(7,12,24,.62)"/>
    <path d="M1498 330 C1528 328 1556 340 1574 360 C1588 376 1592 400 1584 422 C1572 456 1536 476 1506 470 C1478 464 1460 444 1456 416 C1450 372 1464 338 1498 330 Z" fill="rgba(255,255,255,.18)"/>
  </g>

  <rect width="1920" height="980" fill="url(#d)"/>
</svg>
